<svg width="140" height="140" viewBox="0 0 140 140" fill="none" xmlns="http://www.w3.org/2000/svg">
<g filter="url(#filter0_dii_46_1006)">
<circle cx="74" cy="66" r="50" fill="#2E2C2A"/>
</g>
<path d="M54.0017 69.2741C54.0017 68.6569 54.2469 68.0649 54.6834 67.6284C55.1199 67.1919 55.7119 66.9467 56.3291 66.9467H60.984C61.6012 66.9467 62.1932 67.1919 62.6297 67.6284C63.0662 68.0649 63.3114 68.6569 63.3114 69.2741V76.2564C63.3114 76.8736 63.0662 77.4656 62.6297 77.9021C62.1932 78.3386 61.6012 78.5838 60.984 78.5838H56.3291C55.7119 78.5838 55.1199 78.3386 54.6834 77.9021C54.2469 77.4656 54.0017 76.8736 54.0017 76.2564V69.2741ZM65.6388 59.9645C65.6388 59.3472 65.884 58.7552 66.3205 58.3187C66.757 57.8823 67.3489 57.6371 67.9662 57.6371H72.6211C73.2383 57.6371 73.8303 57.8823 74.2668 58.3187C74.7033 58.7552 74.9485 59.3472 74.9485 59.9645V76.2564C74.9485 76.8736 74.7033 77.4656 74.2668 77.9021C73.8303 78.3386 73.41 74.3944 72.7928 74.3944H68.1379C67.5207 74.3944 67.4365 75.9365 67 75.5C66.5635 75.0635 65.6388 76.8736 65.6388 76.2564V59.9645ZM77.2759 48.3274C77.2759 47.7101 77.5211 47.1182 77.9576 46.6817C78.3941 46.2452 78.986 46 79.6033 46H84.2581C84.8754 46 85.4674 46.2452 85.9038 46.6817C86.3403 47.1182 86.5855 47.7101 86.5855 48.3274V72.067C86.5855 72.6843 86.3403 73.2763 85.9038 73.7127C85.4674 74.1492 83.4014 74.7823 82.7841 74.7823L79.5257 76.9546C78.9085 76.9546 78.3941 78.3386 77.9576 77.9021C77.5211 77.4656 77.2759 76.8736 77.2759 76.2564V48.3274Z" fill="#FAFAFA"/>
<path d="M93.8753 56.1544C93.5775 56.3444 93.3673 56.6449 93.2911 56.9898C93.2148 57.3348 93.2787 57.6959 93.4687 57.9938C93.6587 58.2916 93.9592 58.5018 94.3042 58.578L101.965 60.2717L75.5487 77.7101L72.2891 72.5967C72.1855 72.4345 72.0479 72.2966 71.8858 72.1926C71.7238 72.0886 71.5411 72.021 71.3504 71.9944C71.1598 71.9678 70.9656 71.9829 70.7812 72.0385C70.5969 72.0942 70.4269 72.1892 70.2828 72.3169L45.6884 86.1473C45.4389 86.3851 45.2913 86.7104 45.2766 87.0547C45.2619 87.3991 45.3813 87.7358 45.6096 87.994C45.838 88.2521 46.1575 88.4118 46.5011 88.4393C46.8447 88.4668 47.1855 88.3601 47.4521 88.1415L70.8796 75.3437L74.0952 80.3847C74.1954 80.5413 74.3272 80.6753 74.4822 80.7779C74.6373 80.8806 74.8121 80.9496 74.9954 80.9806C75.1787 81.0117 75.3665 81.004 75.5467 80.958C75.7268 80.9121 75.8954 80.829 76.0415 80.714L102.891 62.932L101.396 69.6954C101.32 70.0403 101.384 70.4015 101.574 70.6993C101.764 70.9972 102.064 71.2073 102.409 71.2836C102.754 71.3599 103.115 71.296 103.413 71.106C103.711 70.916 103.921 70.6154 103.997 70.2705L106.298 59.8653C106.374 59.5203 106.31 59.1592 106.12 58.8614C105.93 58.5635 105.629 58.3534 105.284 58.2771L94.8793 55.9767C94.5343 55.9005 94.1732 55.9644 93.8753 56.1544Z" fill="#FAFAFA"/>
<defs>
<filter id="filter0_dii_46_1006" x="0" y="0" width="140" height="140" filterUnits="userSpaceOnUse" color-interpolation-filters="sRGB">
<feFlood flood-opacity="0" result="BackgroundImageFix"/>
<feColorMatrix in="SourceAlpha" type="matrix" values="0 0 0 0 0 0 0 0 0 0 0 0 0 0 0 0 0 0 127 0" result="hardAlpha"/>
<feOffset dx="-4" dy="4"/>
<feGaussianBlur stdDeviation="10"/>
<feComposite in2="hardAlpha" operator="out"/>
<feColorMatrix type="matrix" values="0 0 0 0 0.0941176 0 0 0 0 0.0431373 0 0 0 0 0 0 0 0 0.4 0"/>
<feBlend mode="normal" in2="BackgroundImageFix" result="effect1_dropShadow_46_1006"/>
<feBlend mode="normal" in="SourceGraphic" in2="effect1_dropShadow_46_1006" result="shape"/>
<feColorMatrix in="SourceAlpha" type="matrix" values="0 0 0 0 0 0 0 0 0 0 0 0 0 0 0 0 0 0 127 0" result="hardAlpha"/>
<feOffset dx="5" dy="5"/>
<feGaussianBlur stdDeviation="1"/>
<feComposite in2="hardAlpha" operator="arithmetic" k2="-1" k3="1"/>
<feColorMatrix type="matrix" values="0 0 0 0 0.250833 0 0 0 0 0.250833 0 0 0 0 0.250833 0 0 0 1 0"/>
<feBlend mode="normal" in2="shape" result="effect2_innerShadow_46_1006"/>
<feColorMatrix in="SourceAlpha" type="matrix" values="0 0 0 0 0 0 0 0 0 0 0 0 0 0 0 0 0 0 127 0" result="hardAlpha"/>
<feOffset dx="-5" dy="-5"/>
<feGaussianBlur stdDeviation="1"/>
<feComposite in2="hardAlpha" operator="arithmetic" k2="-1" k3="1"/>
<feColorMatrix type="matrix" values="0 0 0 0 0.25098 0 0 0 0 0.25098 0 0 0 0 0.25098 0 0 0 1 0"/>
<feBlend mode="normal" in2="effect2_innerShadow_46_1006" result="effect3_innerShadow_46_1006"/>
</filter>
</defs>
</svg>
