<svg width="140" height="140" viewBox="0 0 140 140" fill="none" xmlns="http://www.w3.org/2000/svg">
<g filter="url(#filter0_dii_46_994)">
<circle cx="74" cy="66" r="50" fill="#2E2C2A"/>
</g>
<path d="M68.9079 77.58C67.8273 80.8214 65.2523 83.2027 61.461 84.4664C59.7605 85.0287 57.987 85.3393 56.1966 85.3883C55.7762 85.3883 55.3731 85.2213 55.0759 84.9241C54.7786 84.6268 54.6116 84.2237 54.6116 83.8033C54.6607 82.013 54.9713 80.2394 55.5335 78.5389C56.7974 74.7476 59.1785 72.1725 62.4199 71.092C62.6174 71.026 62.826 70.9996 63.0337 71.0143C63.2414 71.0289 63.4442 71.0844 63.6305 71.1774C63.8168 71.2705 63.9829 71.3993 64.1194 71.5566C64.2559 71.7139 64.36 71.8965 64.4259 72.0941C64.4917 72.2916 64.518 72.5002 64.5032 72.7079C64.4884 72.9156 64.4329 73.1184 64.3397 73.3046C64.2465 73.4909 64.1176 73.6569 63.9602 73.7933C63.8028 73.9296 63.6201 74.0337 63.4225 74.0994C59.5278 75.3976 58.3214 79.625 57.9484 82.0518C60.3738 81.6787 64.6022 80.4725 65.9004 76.5776C65.9661 76.38 66.0701 76.1972 66.2065 76.0398C66.3428 75.8824 66.5089 75.7534 66.6951 75.6602C66.8813 75.567 67.0841 75.5114 67.2919 75.4966C67.4996 75.4818 67.7082 75.508 67.9058 75.5739C68.1034 75.6397 68.286 75.7439 68.4433 75.8804C68.6006 76.0168 68.7295 76.183 68.8226 76.3693C68.9156 76.5556 68.9711 76.7584 68.9857 76.9662C69.0004 77.1739 68.9739 77.3825 68.9079 77.58ZM88.6987 62.5088L86.9214 64.2861V76.4222C86.9225 76.8386 86.8411 77.2512 86.6817 77.6359C86.5224 78.0206 86.2883 78.3699 85.9931 78.6636L79.5853 85.0714C79.1796 85.4772 78.6714 85.7652 78.1148 85.9048C77.5583 86.0444 76.9743 86.0303 76.4251 85.864C75.8759 85.6977 75.3822 85.3855 74.9965 84.9607C74.6108 84.5358 74.3477 84.0142 74.2352 83.4516L72.6687 75.6187L64.3812 67.3312L56.5483 65.7646C55.9857 65.6521 55.4642 65.389 55.0394 65.0034C54.6145 64.6177 54.3023 64.124 54.1361 63.5749C53.9698 63.0258 53.9556 62.4418 54.0952 61.8853C54.2347 61.3287 54.5226 60.8205 54.9283 60.4148L61.336 54.007C61.6298 53.7117 61.9791 53.4777 62.3639 53.3183C62.7487 53.1589 63.1612 53.0774 63.5777 53.0785H75.7137L77.4909 51.3012C83.1549 45.6376 88.9667 45.8018 91.2029 46.1355C91.8742 46.2329 92.4959 46.5446 92.9756 47.0242C93.4552 47.5038 93.767 48.1256 93.8644 48.7968C94.1982 51.0329 94.3627 56.8448 88.6987 62.5088ZM57.17 62.6562L64.6417 64.1505L72.5437 56.2485H63.5777L57.17 62.6562ZM67.4042 65.8711L74.1288 72.5958L86.457 60.2673C88.0043 58.7201 91.5179 54.5506 90.7293 49.2648C85.4472 48.4818 81.2797 51.9956 79.7326 53.5428L67.4042 65.8711ZM83.7514 67.4562L75.8494 75.3583L77.3437 82.8299L83.7514 76.4222L83.7514 67.4562Z" fill="#FAFAFA"/>
<defs>
<filter id="filter0_dii_46_994" x="0" y="0" width="140" height="140" filterUnits="userSpaceOnUse" color-interpolation-filters="sRGB">
<feFlood flood-opacity="0" result="BackgroundImageFix"/>
<feColorMatrix in="SourceAlpha" type="matrix" values="0 0 0 0 0 0 0 0 0 0 0 0 0 0 0 0 0 0 127 0" result="hardAlpha"/>
<feOffset dx="-4" dy="4"/>
<feGaussianBlur stdDeviation="10"/>
<feComposite in2="hardAlpha" operator="out"/>
<feColorMatrix type="matrix" values="0 0 0 0 0.0941176 0 0 0 0 0.0431373 0 0 0 0 0 0 0 0 0.4 0"/>
<feBlend mode="normal" in2="BackgroundImageFix" result="effect1_dropShadow_46_994"/>
<feBlend mode="normal" in="SourceGraphic" in2="effect1_dropShadow_46_994" result="shape"/>
<feColorMatrix in="SourceAlpha" type="matrix" values="0 0 0 0 0 0 0 0 0 0 0 0 0 0 0 0 0 0 127 0" result="hardAlpha"/>
<feOffset dx="5" dy="5"/>
<feGaussianBlur stdDeviation="1"/>
<feComposite in2="hardAlpha" operator="arithmetic" k2="-1" k3="1"/>
<feColorMatrix type="matrix" values="0 0 0 0 0.250833 0 0 0 0 0.250833 0 0 0 0 0.250833 0 0 0 1 0"/>
<feBlend mode="normal" in2="shape" result="effect2_innerShadow_46_994"/>
<feColorMatrix in="SourceAlpha" type="matrix" values="0 0 0 0 0 0 0 0 0 0 0 0 0 0 0 0 0 0 127 0" result="hardAlpha"/>
<feOffset dx="-5" dy="-5"/>
<feGaussianBlur stdDeviation="1"/>
<feComposite in2="hardAlpha" operator="arithmetic" k2="-1" k3="1"/>
<feColorMatrix type="matrix" values="0 0 0 0 0.25098 0 0 0 0 0.25098 0 0 0 0 0.25098 0 0 0 1 0"/>
<feBlend mode="normal" in2="effect2_innerShadow_46_994" result="effect3_innerShadow_46_994"/>
</filter>
</defs>
</svg>
